<svg width="30" height="31" viewBox="0 0 30 31" fill="none" xmlns="http://www.w3.org/2000/svg">
<path d="M15 30.3912C12.0333 30.3912 9.13319 29.5068 6.66645 27.85C4.19972 26.1932 2.27713 23.8382 1.14181 21.083C0.00649929 18.3278 -0.290551 15.2961 0.288228 12.3711C0.867006 9.44621 2.29562 6.75949 4.3934 4.65074C6.49119 2.54199 9.16394 1.10591 12.0737 0.524109C14.9834 -0.0576943 17.9994 0.240908 20.7403 1.38216C23.4812 2.5234 25.8238 4.45604 27.4721 6.93567C29.1203 9.4153 30 12.3306 30 15.3128C29.9958 19.3105 28.4141 23.1433 25.6019 25.9701C22.7898 28.7969 18.977 30.3869 15 30.3912ZM12.778 19.6353V28.626C13.4396 28.7302 14.1083 28.783 14.778 28.7838C15.4478 28.7838 16.1165 28.731 16.778 28.626V19.6353H19.76L20.325 15.9159H16.773V13.5034C16.7471 13.2253 16.7841 12.9449 16.881 12.6832C16.978 12.4215 17.1326 12.1851 17.3331 11.9919C17.5337 11.7986 17.7751 11.6533 18.0393 11.5669C18.3035 11.4805 18.5837 11.4552 18.859 11.4929H20.473V8.32646C19.5257 8.17307 18.5685 8.08908 17.609 8.07515C14.584 8.07515 12.778 9.94688 12.778 13.0812V15.9159H9.52501V19.6353H12.778Z" fill="#B1AECF"/>
</svg>
