<svg width="16" height="19" viewBox="0 0 16 19" fill="none" xmlns="http://www.w3.org/2000/svg">
<path d="M15.379 5.644H0.423019C0.310832 5.644 0.203241 5.59944 0.123913 5.52011C0.0445849 5.44078 1.89145e-05 5.33319 1.89145e-05 5.221V3.951C1.89145e-05 3.50199 0.178388 3.07137 0.495887 2.75387C0.813386 2.43637 1.24401 2.258 1.69302 2.258H3.38602V0.423001C3.38602 0.367368 3.39699 0.312281 3.41831 0.260895C3.43963 0.209509 3.47088 0.162833 3.51027 0.123541C3.54965 0.0842486 3.5964 0.0531115 3.64784 0.0319127C3.69927 0.0107138 3.75439 -0.000130339 3.81002 1.18214e-06H5.22102C5.33321 1.18214e-06 5.4408 0.0445671 5.52013 0.123895C5.59945 0.203223 5.64402 0.310815 5.64402 0.423001V2.258H10.159V0.423001C10.159 0.367452 10.17 0.312447 10.1912 0.261126C10.2125 0.209805 10.2436 0.163174 10.2829 0.123895C10.3222 0.0846158 10.3688 0.0534579 10.4201 0.0322001C10.4715 0.0109424 10.5265 1.18214e-06 10.582 1.18214e-06H11.993C12.1052 1.18214e-06 12.2128 0.0445671 12.2921 0.123895C12.3715 0.203223 12.416 0.310815 12.416 0.423001V2.258H14.11C14.5585 2.2588 14.9884 2.43752 15.3052 2.75493C15.6221 3.07234 15.8 3.50251 15.8 3.951V5.221C15.8 5.33284 15.7557 5.44013 15.6768 5.5194C15.5979 5.59867 15.4909 5.64347 15.379 5.644ZM0.423019 6.773H15.379C15.4347 6.77326 15.4899 6.78453 15.5412 6.80615C15.5926 6.82778 15.6391 6.85934 15.6783 6.89901C15.7174 6.93869 15.7483 6.98571 15.7692 7.03736C15.7901 7.08901 15.8005 7.14428 15.8 7.2V16.371C15.799 16.8188 15.6205 17.2479 15.3038 17.5645C14.9871 17.881 14.5578 18.0592 14.11 18.06H1.69302C1.24401 18.06 0.813386 17.8816 0.495887 17.5641C0.178388 17.2466 1.89145e-05 16.816 1.89145e-05 16.367V7.2C-0.000509571 7.14412 0.0100415 7.08868 0.0310625 7.0369C0.0520835 6.98511 0.0831577 6.93801 0.12249 6.89831C0.161822 6.8586 0.208631 6.82709 0.260215 6.80558C0.311798 6.78407 0.367132 6.773 0.423019 6.773ZM12.18 10.157L11.186 9.157C11.1467 9.11745 11.1 9.08607 11.0485 9.06465C10.997 9.04324 10.9418 9.03221 10.886 9.03221C10.8303 9.03221 10.775 9.04324 10.7236 9.06465C10.6721 9.08607 10.6253 9.11745 10.586 9.157L6.84602 12.867L5.22502 11.228C5.18571 11.1885 5.13896 11.1571 5.08748 11.1357C5.03599 11.1142 4.98078 11.1032 4.92502 11.1032C4.86926 11.1032 4.81404 11.1142 4.76256 11.1357C4.71107 11.1571 4.66433 11.1885 4.62502 11.228L3.62502 12.222C3.58547 12.2613 3.55409 12.3081 3.53267 12.3595C3.51125 12.411 3.50023 12.4662 3.50023 12.522C3.50023 12.5778 3.51125 12.633 3.53267 12.6845C3.55409 12.7359 3.58547 12.7827 3.62502 12.822L6.53902 15.759C6.57833 15.7985 6.62507 15.8299 6.67656 15.8513C6.72804 15.8728 6.78326 15.8838 6.83902 15.8838C6.89478 15.8838 6.94999 15.8728 7.00148 15.8513C7.05296 15.8299 7.09971 15.7985 7.13902 15.759L12.182 10.759C12.2216 10.7197 12.253 10.6729 12.2744 10.6215C12.2958 10.57 12.3068 10.5148 12.3068 10.459C12.3068 10.4032 12.2958 10.348 12.2744 10.2965C12.253 10.2451 12.2216 10.1983 12.182 10.159L12.18 10.157Z" fill="#474747"/>
</svg>
