<svg width="14" height="18" viewBox="0 0 14 18" fill="none" xmlns="http://www.w3.org/2000/svg">
<path d="M7.24319 1.28155e-06C6.42215 -0.000524606 5.60906 0.160803 4.85041 0.474759C4.09177 0.788715 3.40245 1.24914 2.82189 1.8297C2.24133 2.41027 1.7809 3.09958 1.46695 3.85823C1.15299 4.61687 0.991663 5.42996 0.992189 6.251C0.992189 10.94 7.24319 17.861 7.24319 17.861C7.24319 17.861 13.4922 10.94 13.4922 6.251C13.4927 5.43013 13.3315 4.6172 13.0176 3.85869C12.7038 3.10017 12.2435 2.41095 11.6632 1.83041C11.0828 1.24987 10.3938 0.789407 9.63535 0.475334C8.87694 0.16126 8.06406 -0.000261692 7.24319 1.28155e-06ZM7.24319 8.484C6.80154 8.484 6.36982 8.35304 6.0026 8.10767C5.63539 7.86231 5.34918 7.51356 5.18017 7.10553C5.01116 6.69751 4.96693 6.24852 5.0531 5.81536C5.13926 5.38221 5.35193 4.98432 5.66422 4.67203C5.97651 4.35974 6.37439 4.14707 6.80755 4.06091C7.24071 3.97475 7.68969 4.01897 8.09772 4.18798C8.50575 4.35699 8.8545 4.6432 9.09986 5.01041C9.34523 5.37763 9.47619 5.80936 9.47619 6.251C9.47619 6.84323 9.24093 7.4112 8.82216 7.82997C8.40339 8.24874 7.83542 8.484 7.24319 8.484Z" fill="#474747"/>
</svg>
