<svg width="30" height="31" viewBox="0 0 30 31" fill="none" xmlns="http://www.w3.org/2000/svg">
<path d="M15 30.3912C12.0333 30.3912 9.13319 29.5068 6.66645 27.85C4.19972 26.1932 2.27713 23.8382 1.14181 21.083C0.00649929 18.3278 -0.290551 15.2961 0.288228 12.3711C0.867006 9.44621 2.29562 6.75949 4.3934 4.65074C6.49119 2.54199 9.16394 1.10591 12.0737 0.524109C14.9834 -0.0576943 17.9994 0.240908 20.7403 1.38216C23.4812 2.5234 25.8238 4.45604 27.4721 6.93567C29.1203 9.4153 30 12.3306 30 15.3128C29.9958 19.3105 28.4141 23.1433 25.6019 25.9701C22.7898 28.7969 18.977 30.3869 15 30.3912ZM11.673 6.94226C10.3475 6.94412 9.0768 7.47425 8.13952 8.41643C7.20224 9.35861 6.67486 10.6359 6.67301 11.9684V18.6491C6.67459 19.9816 7.20189 21.2591 8.13923 22.2014C9.07656 23.1436 10.3474 23.6737 11.673 23.6753H18.323C19.6486 23.6737 20.9195 23.1436 21.8568 22.2014C22.7941 21.2591 23.3214 19.9816 23.323 18.6491V11.9724C23.3212 10.64 22.7938 9.36263 21.8565 8.42046C20.9192 7.47828 19.6485 6.94814 18.323 6.94628L11.673 6.94226ZM18.323 22.1071H11.673C10.7628 22.1052 9.89058 21.7406 9.24756 21.093C8.60454 20.4455 8.24327 19.5681 8.24301 18.6531V11.9724C8.24327 11.0577 8.6046 10.1804 9.24768 9.53323C9.89076 8.88604 10.763 8.5218 11.673 8.52046H18.323C19.2336 8.52126 20.1067 8.88517 20.7507 9.53234C21.3947 10.1795 21.7569 11.0571 21.758 11.9724V18.6531C21.7569 19.5687 21.3947 20.4465 20.7508 21.0939C20.1069 21.7414 19.2338 22.1058 18.323 22.1071ZM15.066 11.1913C14.2551 11.1913 13.4624 11.4331 12.7882 11.8859C12.1139 12.3388 11.5884 12.9825 11.2781 13.7356C10.9678 14.4887 10.8866 15.3174 11.0448 16.1168C11.203 16.9163 11.5935 17.6507 12.1669 18.2271C12.7403 18.8035 13.4708 19.196 14.2661 19.355C15.0615 19.514 15.8858 19.4324 16.635 19.1205C17.3842 18.8085 18.0245 18.2803 18.475 17.6025C18.9255 16.9248 19.166 16.1279 19.166 15.3128C19.166 14.2197 18.734 13.1714 17.9651 12.3985C17.1962 11.6256 16.1534 11.1913 15.066 11.1913ZM19.406 9.92879C19.2126 9.92819 19.0233 9.98527 18.8622 10.0928C18.701 10.2003 18.5752 10.3535 18.5006 10.5329C18.426 10.7123 18.4061 10.9099 18.4432 11.1007C18.4804 11.2916 18.573 11.467 18.7093 11.6049C18.8457 11.7428 19.0197 11.837 19.2093 11.8755C19.3989 11.914 19.5956 11.8952 19.7745 11.8213C19.9534 11.7475 20.1066 11.6219 20.2145 11.4606C20.3225 11.2992 20.3804 11.1094 20.381 10.9149C20.3805 10.6549 20.2777 10.4056 20.095 10.2214C19.9124 10.0372 19.6647 9.93313 19.406 9.9318V9.92879ZM15.066 17.9515C14.5464 17.9515 14.0384 17.7966 13.6063 17.5063C13.1743 17.2161 12.8376 16.8035 12.6388 16.3209C12.44 15.8382 12.3881 15.3072 12.4896 14.7948C12.5912 14.2825 12.8416 13.812 13.2091 13.4428C13.5767 13.0735 14.045 12.8222 14.5547 12.7205C15.0645 12.6189 15.5927 12.6715 16.0727 12.8716C16.5527 13.0718 16.9628 13.4106 17.2513 13.8451C17.5397 14.2797 17.6934 14.7904 17.693 15.3128C17.6931 15.6596 17.6253 16.0031 17.4933 16.3237C17.3614 16.6442 17.1679 16.9354 16.9239 17.1807C16.68 17.426 16.3903 17.6206 16.0715 17.7534C15.7528 17.8862 15.4111 17.9545 15.066 17.9545V17.9515Z" fill="#B1AECF"/>
</svg>
