<svg width="30" height="31" viewBox="0 0 30 31" fill="none" xmlns="http://www.w3.org/2000/svg">
<path d="M15 0.234375C12.0333 0.234375 9.13319 1.11871 6.66645 2.77554C4.19972 4.43238 2.27713 6.7873 1.14181 9.54252C0.00649929 12.2977 -0.290551 15.3295 0.288228 18.2544C0.867006 21.1793 2.29562 23.8661 4.39341 25.9748C6.49119 28.0836 9.16394 29.5196 12.0737 30.1014C14.9834 30.6832 17.9994 30.3846 20.7403 29.2434C23.4811 28.1021 25.8238 26.1695 27.472 23.6899C29.1203 21.2103 30 18.295 30 15.3128C30 13.3326 29.612 11.3719 28.8582 9.54252C28.1044 7.71312 26.9995 6.05089 25.6066 4.65074C24.2137 3.25058 22.5601 2.13991 20.7403 1.38215C18.9204 0.624389 16.9698 0.234375 15 0.234375ZM22 16.7724L11.352 22.9123C11.1308 23.0356 10.8814 23.0987 10.6285 23.0955C10.3755 23.0922 10.1278 23.0227 9.9098 22.8938C9.69177 22.7649 9.51098 22.581 9.38527 22.3604C9.25956 22.1397 9.19329 21.8899 9.19301 21.6356V8.98889C9.19324 8.73457 9.25944 8.4847 9.38508 8.26394C9.51072 8.04319 9.69145 7.85919 9.90943 7.73009C10.1274 7.60099 10.3751 7.53126 10.6281 7.52778C10.8811 7.5243 11.1306 7.58719 11.352 7.71024L21.997 14.2181C22.2226 14.3453 22.4105 14.5306 22.5413 14.7549C22.672 14.9793 22.7409 15.2347 22.7409 15.4947C22.7409 15.7548 22.672 16.0101 22.5413 16.2345C22.4105 16.4589 22.2226 16.6442 21.997 16.7714L22 16.7724Z" fill="#B1AECF"/>
</svg>
